<svg width="31" height="31" viewBox="0 0 31 31" fill="none" xmlns="http://www.w3.org/2000/svg">
<path d="M15.1987 16.5286L8.54872 23.1786C8.35872 23.3686 8.13705 23.4636 7.88372 23.4636C7.63038 23.4636 7.40872 23.3686 7.21872 23.1786C7.02872 22.9886 6.93372 22.7669 6.93372 22.5136C6.93372 22.2603 7.02872 22.0386 7.21872 21.8486L13.8687 15.1986L7.21872 8.54859C7.02872 8.35859 6.93372 8.13693 6.93372 7.88359C6.93372 7.63026 7.02872 7.40859 7.21872 7.21859C7.40872 7.02859 7.63038 6.93359 7.88372 6.93359C8.13705 6.93359 8.35872 7.02859 8.54872 7.21859L15.1987 13.8686L21.8487 7.21859C22.0387 7.02859 22.2604 6.93359 22.5137 6.93359C22.767 6.93359 22.9887 7.02859 23.1787 7.21859C23.3687 7.40859 23.4637 7.63026 23.4637 7.88359C23.4637 8.13693 23.3687 8.35859 23.1787 8.54859L16.5287 15.1986L23.1787 21.8486C23.3687 22.0386 23.4637 22.2603 23.4637 22.5136C23.4637 22.7669 23.3687 22.9886 23.1787 23.1786C22.9887 23.3686 22.767 23.4636 22.5137 23.4636C22.2604 23.4636 22.0387 23.3686 21.8487 23.1786L15.1987 16.5286Z" fill="white"/>
</svg>
