<svg width="38" height="38" viewBox="0 0 38 38" fill="none" xmlns="http://www.w3.org/2000/svg">
<path d="M30.1625 7.77556C28.7109 6.30928 26.9819 5.1467 25.0763 4.35564C23.1707 3.56458 21.1266 3.16088 19.0634 3.16806C10.4184 3.16806 3.37252 10.2139 3.37252 18.8589C3.37252 21.6297 4.10085 24.3214 5.46252 26.6964L3.24585 34.8347L11.5584 32.6497C13.8542 33.9006 16.435 34.5656 19.0634 34.5656C27.7084 34.5656 34.7542 27.5197 34.7542 18.8747C34.7542 14.6789 33.1234 10.7364 30.1625 7.77556ZM19.0634 31.9056C16.72 31.9056 14.4242 31.2722 12.4134 30.0847L11.9384 29.7997L6.99835 31.0981L8.31252 26.2847L7.99585 25.7939C6.69395 23.7149 6.00266 21.3119 6.00085 18.8589C6.00085 11.6706 11.8592 5.81223 19.0475 5.81223C22.5309 5.81223 25.8084 7.1739 28.2625 9.6439C29.4777 10.8535 30.4407 12.2923 31.0957 13.8768C31.7507 15.4614 32.0847 17.1602 32.0784 18.8747C32.11 26.0631 26.2517 31.9056 19.0634 31.9056ZM26.22 22.1522C25.8242 21.9622 23.8925 21.0122 23.5442 20.8697C23.18 20.7431 22.9267 20.6797 22.6575 21.0597C22.3884 21.4556 21.6442 22.3422 21.4225 22.5956C21.2009 22.8647 20.9634 22.8964 20.5675 22.6906C20.1717 22.5006 18.905 22.0731 17.4167 20.7431C16.245 19.6981 15.4692 18.4156 15.2317 18.0197C15.01 17.6239 15.2 17.4181 15.4059 17.2122C15.58 17.0381 15.8017 16.7531 15.9917 16.5314C16.1817 16.3097 16.2609 16.1356 16.3875 15.8822C16.5142 15.6131 16.4509 15.3914 16.3559 15.2014C16.2609 15.0114 15.4692 13.0797 15.1525 12.2881C14.8359 11.5281 14.5034 11.6231 14.2659 11.6072H13.5059C13.2367 11.6072 12.825 11.7022 12.4609 12.0981C12.1125 12.4939 11.0992 13.4439 11.0992 15.3756C11.0992 17.3072 12.5084 19.1756 12.6984 19.4289C12.8884 19.6981 15.4692 23.6564 19.3959 25.3506C20.33 25.7622 21.0584 25.9997 21.6284 26.1739C22.5625 26.4747 23.4175 26.4272 24.0984 26.3322C24.8584 26.2214 26.4259 25.3822 26.7425 24.4639C27.075 23.5456 27.075 22.7697 26.9642 22.5956C26.8534 22.4214 26.6159 22.3422 26.22 22.1522Z" fill="white"/>
</svg>
