<svg width="37" height="36" viewBox="0 0 37 36" fill="none" xmlns="http://www.w3.org/2000/svg">
<g clip-path="url(#clip0_3595_23709)">
<path d="M1.00719 17.7844C1.00634 20.8091 1.81246 23.7625 3.3453 26.3657L0.860596 35.2599L10.1447 32.8733C12.7126 34.2439 15.5897 34.962 18.5134 34.9622H18.5211C28.1728 34.9622 36.0295 27.2622 36.0337 17.798C36.0355 13.2119 34.2155 8.89942 30.9087 5.65495C27.6025 2.41077 23.2054 0.623187 18.5204 0.621094C8.86748 0.621094 1.01132 8.32063 1.00733 17.7844" fill="#2ABC65"/>
<path d="M0.381901 17.779C0.380905 20.9125 1.21592 23.9715 2.80341 26.6679L0.229614 35.881L9.84662 33.4088C12.4964 34.8253 15.4798 35.572 18.5156 35.5732H18.5234C28.5214 35.5732 36.6604 27.5962 36.6647 17.7932C36.6664 13.0423 34.7809 8.57484 31.356 5.21414C27.9306 1.85386 23.3763 0.00195349 18.5234 0C8.52371 0 0.385886 7.97581 0.381901 17.779ZM6.10918 26.2035L5.75009 25.6447C4.2406 23.2916 3.44387 20.5723 3.44501 17.7801C3.44814 9.63195 10.212 3.00279 18.5291 3.00279C22.5569 3.00447 26.3422 4.54381 29.1892 7.33674C32.0361 10.13 33.6027 13.843 33.6017 17.7921C33.598 25.9402 26.834 32.5702 18.5234 32.5702H18.5174C15.8114 32.5688 13.1575 31.8564 10.843 30.51L10.2922 30.1898L4.58531 31.6567L6.10918 26.2035Z" fill="url(#paint0_linear_3595_23709)"/>
<path d="M13.9893 10.3446C13.6497 9.60465 13.2924 9.58972 12.9694 9.57675C12.705 9.56558 12.4027 9.56642 12.1007 9.56642C11.7984 9.56642 11.3072 9.67791 10.8921 10.1223C10.4765 10.5672 9.30542 11.6421 9.30542 13.8285C9.30542 16.015 10.9298 18.128 11.1562 18.4248C11.3829 18.721 14.292 23.3514 18.8994 25.1327C22.7285 26.613 23.5077 26.3186 24.3387 26.2443C25.1699 26.1704 27.0207 25.1696 27.3983 24.1319C27.7761 23.0943 27.7761 22.2049 27.6628 22.0191C27.5496 21.8339 27.2473 21.7227 26.794 21.5006C26.3405 21.2783 24.112 20.2032 23.6966 20.0548C23.281 19.9067 22.9788 19.8327 22.6765 20.2777C22.3742 20.722 21.5062 21.7227 21.2416 22.0191C20.9773 22.3161 20.7127 22.3531 20.2596 22.1308C19.806 21.9079 18.3462 21.4392 16.6142 19.9254C15.2667 18.7474 14.3569 17.2927 14.0925 16.8478C13.8281 16.4035 14.0642 16.1627 14.2915 15.9412C14.4951 15.7421 14.7449 15.4223 14.9718 15.1629C15.1978 14.9034 15.2732 14.7182 15.4244 14.4218C15.5757 14.1252 15.4999 13.8656 15.3868 13.6434C15.2732 13.4211 14.3924 11.2233 13.9893 10.3446Z" fill="white"/>
</g>
<defs>
<linearGradient id="paint0_linear_3595_23709" x1="1821.98" y1="3588.1" x2="1821.98" y2="0" gradientUnits="userSpaceOnUse">
<stop stop-color="#F9F9F9"/>
<stop offset="1" stop-color="white"/>
</linearGradient>
<clipPath id="clip0_3595_23709">
<rect width="36.435" height="36" fill="white" transform="translate(0.229614)"/>
</clipPath>
</defs>
</svg>
